<svg xmlns="http://www.w3.org/2000/svg" width="77.333" height="77.333" viewBox="1481 1393.5 77.333 77.333"><g data-name="customer-service"><path d="M1557.2 1468.568h-1.132v-16.87c0-4.42-2.612-8.433-6.667-10.23l-5.97-2.56a8.943 8.943 0 0 0 3.833-2.41 9.384 9.384 0 0 0 2.535-6.367c0-2.147-.75-4.174-2.169-5.86a11.728 11.728 0 0 1-2.753-7.545v-5.429c0-4.754-1.852-9.223-5.214-12.583a17.68 17.68 0 0 0-12.585-5.214c-9.813 0-17.797 7.984-17.797 17.797v5.252a6.61 6.61 0 0 1 0 .002 12.244 12.244 0 0 1-2.942 7.769c-1.53 1.843-2.251 4.12-2.109 6.395a9.237 9.237 0 0 0 .866 3.353 9.076 9.076 0 0 0 5.622 4.879l-5.929 2.578a11.161 11.161 0 0 0-6.847 10.309v13.335a1.133 1.133 0 0 0 1.133 1.133c.626 0 1.133-.507 1.133-1.133v-13.335a8.905 8.905 0 0 1 5.472-8.226l7.431-3.231v6.818h-3.414a3.404 3.404 0 0 0-2.526 1.126 3.403 3.403 0 0 0-.856 2.604 3.387 3.387 0 0 0 .003.027l1.867 17.616h-26.052c-.626 0-1.133.507-1.133 1.132a1.133 1.133 0 0 0 1.133 1.133h75.067a1.133 1.133 0 0 0 1.133-1.133 1.133 1.133 0 0 0-1.133-1.132Zm-19.473-55.052v6.168a8.864 8.864 0 0 1-1.315 2.217c-.307.37-.672.738-1.122 1.116a11.284 11.284 0 0 1-.08.066 8.686 8.686 0 0 1-1.879 1.181 3.324 3.324 0 0 0-2.888-1.81 3.366 3.366 0 0 0-.068-.001h-2.655a3.324 3.324 0 0 0-3.32 3.32 3.324 3.324 0 0 0 3.32 3.321h2.655a3.326 3.326 0 0 0 3.213-2.48 5.205 5.205 0 0 0 .459-.205c1.38-.686 3.188-2.154 3.485-2.399a6.786 6.786 0 0 0 .043-.035c-.768 4.119-4.386 7.247-8.723 7.247h-3.692c-4.894 0-8.875-3.981-8.875-8.875v-8.756a30.377 30.377 0 0 0 10.816-3.877 30.189 30.189 0 0 0 3.441-2.372 31.044 31.044 0 0 0 6.674-7.372 31.17 31.17 0 0 0 .18-.281 15.524 15.524 0 0 1 5.217 11.597 15.525 15.525 0 0 1-.002.204c-3.013.407-6.396-.359-8.807-2.102a9.591 9.591 0 0 1-.254-.19 1.128 1.128 0 0 0-.508-.222 1.133 1.133 0 0 0-1.032.365 1.15 1.15 0 0 0-.049.058 1.128 1.128 0 0 0-.222.508c-.062.375.067.77.368 1.036a1.15 1.15 0 0 0 .056.046 13.649 13.649 0 0 0 5.37 2.485 14.807 14.807 0 0 0 .194.042Zm8.854 37.197-1.893 17.855h-34.224l-1.893-17.855a1.172 1.172 0 0 1-.007-.123 1.117 1.117 0 0 1 .291-.754 1.12 1.12 0 0 1 .842-.375h35.758c.325 0 .624.133.842.375a1.117 1.117 0 0 1 .29.754 1.172 1.172 0 0 1-.006.123Zm-52.672-30.943 10.242.002c.708 0 1.309-.458 1.496-1.14.038-.14.057-.281.057-.42a1.532 1.532 0 0 0-.763-1.324l-1.558-.922a13.13 13.13 0 0 0 3.89-9.331 13.214 13.214 0 0 0 0-.083 13.205 13.205 0 0 0-12.944-13.05 13.416 13.416 0 0 0-.192-.002 13.148 13.148 0 0 0-13.137 13.137c0 6.996 5.765 12.981 12.888 13.133a.632.632 0 0 0 .01 0 1.912 1.912 0 0 0 .01 0Zm59.893 48.798h-6.835l1.867-17.616a3.375 3.375 0 0 0 .002-.025c.011-.11.017-.221.017-.332a3.405 3.405 0 0 0-.872-2.274 3.403 3.403 0 0 0-2.526-1.126h-4.556v-6.907l7.597 3.256a8.926 8.926 0 0 1 5.306 8.154v16.87Zm-52.277-51.069.012.007-7.617-.002a10.897 10.897 0 0 1-10.654-10.867 10.793 10.793 0 0 1 3.24-7.743 10.788 10.788 0 0 1 7.634-3.128 11.29 11.29 0 0 1 .157 0 10.927 10.927 0 0 1 10.71 10.8 10.933 10.933 0 0 1 0 .07 10.867 10.867 0 0 1-3.726 8.193 1.66 1.66 0 0 0-.56 1.399 1.658 1.658 0 0 0 .804 1.271Zm13.699-6.043h-3.678v-.159c0-8.564 6.968-15.531 15.532-15.531a15.424 15.424 0 0 1 8.515 2.537c-1.778 2.85-4.75 6.501-9.407 9.318a28.042 28.042 0 0 1-.239.143 28.167 28.167 0 0 1-10.723 3.692Zm-3.677 5.093v-2.828h2.472v8.626a11.11 11.11 0 0 0 3.555 8.151 11.202 11.202 0 0 0 2.328 1.668 5.172 5.172 0 0 1-3.072 4.123l-1.799.782h-1.642a6.836 6.836 0 0 1-6.243-3.966 6.956 6.956 0 0 1-.65-2.52 6.802 6.802 0 0 1-.015-.43 6.85 6.85 0 0 1 1.6-4.386 14.471 14.471 0 0 0 3.466-9.21 12.291 12.291 0 0 0 0-.01Zm29.074 20.522h-1.477l-1.939-.831a5.17 5.17 0 0 1-3.09-4.077c3.496-1.882 5.877-5.575 5.877-9.816v-8.516a14.666 14.666 0 0 0 .994.035c.544 0 1.087-.031 1.625-.092v2.952a13.996 13.996 0 0 0 3.286 9.003c1.07 1.273 1.637 2.795 1.637 4.402a7.097 7.097 0 0 1-1.919 4.814 6.781 6.781 0 0 1-4.994 2.126Zm-24.916 2.178-.328.142v2.697a42.051 42.051 0 0 0 23.256-.223v-2.548l-.16-.069a.03.03 0 0 1-.002 0 .099.099 0 0 1-.002-.001l-2.157-.925a7.435 7.435 0 0 1-4.344-5.28c-.99.288-2.035.446-3.117.446h-3.69a11.103 11.103 0 0 1-3.106-.443 7.439 7.439 0 0 1-4.322 5.322l-2.02.879m22.92 4.978v2.971h-23.256v-2.76a44.277 44.277 0 0 0 11.24 1.45 44.308 44.308 0 0 0 12.017-1.66Zm-11.057 10.486a4.31 4.31 0 0 0-4.305 4.304 4.31 4.31 0 0 0 4.305 4.305 4.31 4.31 0 0 0 4.305-4.305 4.31 4.31 0 0 0-4.305-4.304Zm0 6.343a2.041 2.041 0 0 1-2.04-2.039c0-1.124.916-2.039 2.04-2.039a2.041 2.041 0 0 1 2.039 2.04 2.041 2.041 0 0 1-2.04 2.038Zm2.799-34.224h-2.655a1.056 1.056 0 0 1-1.055-1.055 1.056 1.056 0 0 1 1.055-1.055h2.655a1.056 1.056 0 0 1 1.055 1.051v.007a1.056 1.056 0 0 1-1.055 1.052Zm-36.238-19.06c.625 0 1.132-.507 1.132-1.133a1.133 1.133 0 0 0-1.132-1.133 1.133 1.133 0 0 0 0 2.266Zm4.53 0a1.133 1.133 0 0 0 1.134-1.133 1.133 1.133 0 1 0-1.133 1.133Zm-9.062 0c.626 0 1.133-.507 1.133-1.133a1.133 1.133 0 0 0-1.133-1.133c-.625 0-1.133.508-1.133 1.133a1.133 1.133 0 0 0 1.133 1.133Zm26.104 31.478a.109.109 0 0 1 .004-.001m-.008.003.004-.002" fill="#0078d2" fill-rule="evenodd" data-name="Path 104"/></g></svg>