<svg xmlns="http://www.w3.org/2000/svg" width="90.888" height="68.333" viewBox="365 1396.667 90.888 68.333"><g data-name="fast-time"><path d="M371.9 1411.876h14.042a1.331 1.331 0 1 0 0-2.662H371.9a1.331 1.331 0 1 0 0 2.662Z" fill="#0078d2" fill-rule="evenodd" data-name="Path 105"/><path d="M385.46 1418.286h-5.547c-.735 0-1.33.596-1.33 1.331a1.331 1.331 0 0 0 1.33 1.332h5.547c.735 0 1.331-.596 1.331-1.332a1.331 1.331 0 0 0-1.33-1.33Z" fill="#0078d2" fill-rule="evenodd" data-name="Path 106"/><path d="M366.331 1427.519h13.582a1.331 1.331 0 1 0 0-2.663h-13.582a1.331 1.331 0 1 0 0 2.663Z" fill="#0078d2" fill-rule="evenodd" data-name="Path 107"/><path d="M385.942 1449.79H371.9a1.331 1.331 0 0 0-1.331 1.331 1.331 1.331 0 0 0 1.331 1.332h14.042a1.331 1.331 0 0 0 1.33-1.332 1.331 1.331 0 0 0-1.33-1.33Z" fill="#0078d2" fill-rule="evenodd" data-name="Path 108"/><path d="M385.46 1440.718h-5.547a1.331 1.331 0 0 0-1.33 1.331 1.331 1.331 0 0 0 1.33 1.332h5.547a1.331 1.331 0 1 0 0-2.663Z" fill="#0078d2" fill-rule="evenodd" data-name="Path 109"/><path d="M379.913 1434.148h-13.582a1.331 1.331 0 0 0-1.331 1.332c0 .735.596 1.33 1.331 1.33h13.582a1.331 1.331 0 1 0 0-2.662Z" fill="#0078d2" fill-rule="evenodd" data-name="Path 110"/><path d="M423.053 1413.495v-2.032a1.331 1.331 0 0 0-1.332-1.331c-.735 0-1.33.596-1.33 1.331v2.032c0 .736.595 1.332 1.33 1.332a1.331 1.331 0 0 0 1.332-1.332Z" fill="#0078d2" fill-rule="evenodd" data-name="Path 111"/><path d="m434.477 1416.195-1.437 1.437a1.331 1.331 0 0 0 1.814 1.947 1.351 1.351 0 0 0 .069-.064l1.437-1.437a1.325 1.325 0 0 0 .363-.68 1.331 1.331 0 0 0-.3-1.134 1.352 1.352 0 0 0-.063-.069 1.326 1.326 0 0 0-.68-.364 1.33 1.33 0 0 0-1.203.364Z" fill="#0078d2" fill-rule="evenodd" data-name="Path 112"/><path d="M439.06 1432.165h2.031a1.331 1.331 0 0 0 1.332-1.332c0-.735-.596-1.331-1.332-1.331h-2.032a1.331 1.331 0 0 0-1.33 1.331c0 .736.595 1.332 1.33 1.332Z" fill="#0078d2" fill-rule="evenodd" data-name="Path 113"/><path d="m433.04 1444.035 1.437 1.437a1.332 1.332 0 0 0 1.814.064 1.352 1.352 0 0 0 .069-.064 1.331 1.331 0 0 0 .064-1.815 1.35 1.35 0 0 0-.064-.068l-1.437-1.437a1.332 1.332 0 0 0-1.883 0 1.326 1.326 0 0 0-.364.679 1.33 1.33 0 0 0 .3 1.135 1.351 1.351 0 0 0 .064.069Z" fill="#0078d2" fill-rule="evenodd" data-name="Path 114"/><path d="M420.39 1448.171v2.032c0 .736.596 1.332 1.331 1.332a1.331 1.331 0 0 0 1.332-1.332v-2.032a1.331 1.331 0 0 0-1.332-1.331c-.735 0-1.33.596-1.33 1.331Z" fill="#0078d2" fill-rule="evenodd" data-name="Path 115"/><path d="m408.52 1442.152-1.437 1.437a1.331 1.331 0 0 0-.064 1.814 1.35 1.35 0 0 0 .064.069 1.325 1.325 0 0 0 .68.363 1.33 1.33 0 0 0 1.203-.363l1.437-1.437a1.326 1.326 0 0 0 .364-.68 1.33 1.33 0 0 0-.364-1.203 1.325 1.325 0 0 0-.683-.365 1.33 1.33 0 0 0-1.131.3 1.35 1.35 0 0 0-.069.065Z" fill="#0078d2" fill-rule="evenodd" data-name="Path 116"/><path d="M402.351 1432.165h2.033a1.331 1.331 0 0 0 1.33-1.332c0-.735-.595-1.331-1.33-1.331h-2.033a1.331 1.331 0 1 0 0 2.663Z" fill="#0078d2" fill-rule="evenodd" data-name="Path 117"/><path d="m410.403 1417.632-1.437-1.437a1.332 1.332 0 0 0-1.883 0 1.326 1.326 0 0 0-.364.68 1.33 1.33 0 0 0 .3 1.134 1.351 1.351 0 0 0 .064.069l1.437 1.437a1.331 1.331 0 0 0 1.814.064 1.35 1.35 0 0 0 .07-.064 1.325 1.325 0 0 0 .363-.68 1.33 1.33 0 0 0-.364-1.203Z" fill="#0078d2" fill-rule="evenodd" data-name="Path 118"/><path d="M427.55 1429.502h-4.497v-9.885c0-.735-.596-1.331-1.332-1.331a1.331 1.331 0 0 0-1.33 1.331v11.216c0 .736.595 1.332 1.33 1.332h5.828a1.331 1.331 0 0 0 1.332-1.332 1.331 1.331 0 0 0-1.332-1.331Z" fill="#0078d2" fill-rule="evenodd" data-name="Path 119"/><path d="M446.966 1430.614a1.331 1.331 0 0 0 1.249-1.41 26.568 26.568 0 0 0-26.494-24.915 26.574 26.574 0 0 0-26.544 26.545 26.574 26.574 0 0 0 26.544 26.544c13.113 0 24.302-9.608 26.249-22.572a1.342 1.342 0 0 0 .015-.2 1.332 1.332 0 0 0-1.134-1.315 1.338 1.338 0 0 0-.199-.015 1.333 1.333 0 0 0-1.316 1.134c-1.748 11.648-11.805 20.305-23.615 20.305a23.909 23.909 0 0 1-23.881-23.881c0-13.169 10.713-23.882 23.881-23.882 12.604 0 23.074 9.845 23.836 22.414a1.332 1.332 0 0 0 1.33 1.25 1.362 1.362 0 0 0 .08-.002Z" fill="#0078d2" fill-rule="evenodd" data-name="Path 120"/><path d="M408.227 1399.455h-23.49a1.331 1.331 0 0 0-1.332 1.332 1.331 1.331 0 0 0 1.331 1.33h18.482a34.131 34.131 0 0 0-6.828 5.789 1.325 1.325 0 0 0-.322.651c-.08.439.06.908.416 1.23a1.325 1.325 0 0 0 .643.32c.412.079.852-.04 1.172-.347a1.352 1.352 0 0 0 .065-.067 31.572 31.572 0 0 1 23.357-10.364c17.372 0 31.504 14.133 31.504 31.504a31.54 31.54 0 0 1-31.504 31.504c-17.371 0-31.504-14.132-31.504-31.504a31.388 31.388 0 0 1 5.025-17.074c.4-.618.222-1.442-.395-1.84a1.327 1.327 0 0 0-.535-.2 1.332 1.332 0 0 0-1.266.536 1.354 1.354 0 0 0-.04.059 34.043 34.043 0 0 0-5.451 18.52 34.04 34.04 0 0 0 9.248 23.35 34.433 34.433 0 0 0 6.424 5.365h-18.49c-.736 0-1.332.596-1.332 1.331a1.331 1.331 0 0 0 1.332 1.332h23.472A33.971 33.971 0 0 0 421.72 1465a34.205 34.205 0 0 0 34.167-34.167 34.205 34.205 0 0 0-34.167-34.166c-4.683 0-9.271.971-13.494 2.788Z" fill="#0078d2" fill-rule="evenodd" data-name="Path 121"/></g></svg>