<svg xmlns="http://www.w3.org/2000/svg" width="96" height="82.5" viewBox="1102 1393.5 96 82.5"><path d="M1104.813 1443.375v-27.656c10.037-.052 18.187-8.233 18.187-18.281v-1.125h23.25v1.562c0 9.233 6.88 16.887 15.782 18.11a8.034 8.034 0 0 1-1.097.842l-7.683 4.888a4.207 4.207 0 0 1-2.264.66h-1.73a4.226 4.226 0 0 0-4.04-3h-7.874a4.226 4.226 0 0 0-3.977 2.813h-6.898a3.66 3.66 0 0 0-3.656 3.656v24.187a3.66 3.66 0 0 0 3.656 3.657h6.656v13.834a24.125 24.125 0 0 1-22.687-24.053v-23.3a19.215 19.215 0 0 0 17.764-18.325h4.923v12.375a1.406 1.406 0 0 0 1.406 1.406c.777 0 1.407-.63 1.407-1.406v-13.782c0-.777-.63-1.406-1.407-1.406h-7.719a1.406 1.406 0 0 0-1.406 1.406v.594c0 9.03-7.345 16.375-16.375 16.375a1.406 1.406 0 0 0-1.406 1.406v24.657c0 14.836 12.07 26.906 26.906 26.906.777 0 1.407-.63 1.407-1.406v-12.613a3.837 3.837 0 0 0 1.031.144h8.25a4.199 4.199 0 0 0 2.705-.983 4.25 4.25 0 0 0 .67-.707l1.5.85a10.8 10.8 0 0 0 5.316 1.402h5.707a29.794 29.794 0 0 1-26.492 16.125c-16.438 0-29.812-13.374-29.812-29.812Zm84.086-21h-11.138l-.01-16.687a6.57 6.57 0 0 0-6.563-6.563 6.57 6.57 0 0 0-6.563 6.563v4.416a7.97 7.97 0 0 1-.68 3.225 15.485 15.485 0 0 1-14.882-15.454v-2.031a2.346 2.346 0 0 0-2.344-2.344h-24.188a2.346 2.346 0 0 0-2.343 2.344v1.594a15.486 15.486 0 0 1-15.469 15.468h-.375a2.346 2.346 0 0 0-2.344 2.344v28.125a32.662 32.662 0 0 0 32.625 32.625 32.605 32.605 0 0 0 29.622-18.937h19.604c1.28 0 2.53-.528 3.432-1.446a4.607 4.607 0 0 0 1.342-3.244 4.643 4.643 0 0 0 0-.087 4.614 4.614 0 0 0-.395-1.786h.67c3.048 0 5.615-2.432 5.722-5.421a5.58 5.58 0 0 0-.866-3.212c2.358-.634 4.153-2.737 4.24-5.226a5.82 5.82 0 0 0 .004-.207 5.578 5.578 0 0 0-1.577-3.903 5.582 5.582 0 0 0-2.652-1.546 5.573 5.573 0 0 0 .854-2.98 5.809 5.809 0 0 0-.003-.209c-.107-2.989-2.674-5.421-5.723-5.421Zm3.375 16.875h-10.961a1.406 1.406 0 0 0-1.407 1.406c0 .777.63 1.407 1.407 1.407H1189a2.792 2.792 0 0 1 2.025.86 2.788 2.788 0 0 1 .787 1.95 2.919 2.919 0 0 1-.001.106 2.886 2.886 0 0 1-2.821 2.707 2.969 2.969 0 0 1-.09.002h-4.962a1.005 1.005 0 0 0-.063.002 2.076 2.076 0 0 1-.031.002 2.076 2.076 0 0 1-.031-.002 1.005 1.005 0 0 0-.063-.002h-2.437a1.406 1.406 0 0 0-1.407 1.406 1.406 1.406 0 0 0 1.407 1.406h2.437a1.005 1.005 0 0 0 .063-.003 2.076 2.076 0 0 1 .031-.001 2.076 2.076 0 0 1 .031.001 1.005 1.005 0 0 0 .063.003c1.014 0 1.856.825 1.875 1.84a1.752 1.752 0 0 1 0 .031c0 .463-.184.908-.52 1.26a2.033 2.033 0 0 1-.016.016 2.012 2.012 0 0 1-1.425.603h-28.442a7.98 7.98 0 0 1-3.93-1.036l-2.042-1.158v-3.181a1.407 1.407 0 0 0-2.813 0v3.406a1.408 1.408 0 0 1-1.406 1.407h-8.25a1.033 1.033 0 0 1-1.031-1.032v-29.062a1.408 1.408 0 0 1 1.406-1.406h7.875a1.408 1.408 0 0 1 1.406 1.406v18.718a1.406 1.406 0 1 0 2.813 0v-17.124h1.55a7.016 7.016 0 0 0 3.774-1.1l7.683-4.889a10.73 10.73 0 0 0 4.993-9.095v-4.416a3.754 3.754 0 0 1 3.75-3.75 3.755 3.755 0 0 1 3.75 3.75l.01 17.157a2.347 2.347 0 0 0 2.345 2.343h11.606a2.956 2.956 0 0 1 2.551 1.461 2.679 2.679 0 0 1 .36 1.247 2.912 2.912 0 0 1 .003.105 2.792 2.792 0 0 1-.788 1.952 2.792 2.792 0 0 1-2.025.86h-7.687a1.406 1.406 0 1 0 0 2.812h11.062a2.792 2.792 0 0 1 2.025.86 2.788 2.788 0 0 1 .788 1.951 2.918 2.918 0 0 1-.002.106 2.886 2.886 0 0 1-2.821 2.707 2.969 2.969 0 0 1-.09.001Zm-59.149 11.625h-6.656a.845.845 0 0 1-.844-.844v-24.187a.845.845 0 0 1 .844-.844h6.656v25.875Z" fill="#0078d2" fill-rule="evenodd" data-name="reliability"/></svg>