<svg xmlns="http://www.w3.org/2000/svg" width="378" height="378" viewBox="1672 2471 378 378"><path d="M1822.91 2845.16A190.397 190.397 0 0 0 1861 2849a190.397 190.397 0 0 0 38.09-3.84 188.043 188.043 0 0 0 35.477-11.013 189.02 189.02 0 0 0 32.105-17.425 190.358 190.358 0 0 0 27.971-23.079 190.358 190.358 0 0 0 23.079-27.971 189.02 189.02 0 0 0 17.425-32.105 188.043 188.043 0 0 0 11.013-35.477A190.397 190.397 0 0 0 2050 2660a190.397 190.397 0 0 0-3.84-38.09 188.042 188.042 0 0 0-11.013-35.477c-4.736-11.2-10.6-22-17.425-32.105a190.359 190.359 0 0 0-23.079-27.971 190.357 190.357 0 0 0-27.971-23.079 189.019 189.019 0 0 0-32.105-17.425 188.045 188.045 0 0 0-35.477-11.013A190.398 190.398 0 0 0 1861 2471a190.398 190.398 0 0 0-38.09 3.84 188.045 188.045 0 0 0-35.477 11.013 189.018 189.018 0 0 0-32.105 17.425 190.358 190.358 0 0 0-27.971 23.079 190.358 190.358 0 0 0-23.079 27.971 189.018 189.018 0 0 0-17.425 32.105 188.045 188.045 0 0 0-11.013 35.477A190.398 190.398 0 0 0 1672 2660c0 12.823 1.292 25.639 3.84 38.09a188.045 188.045 0 0 0 11.013 35.477 189.019 189.019 0 0 0 17.425 32.105 190.357 190.357 0 0 0 23.079 27.971 190.359 190.359 0 0 0 27.971 23.079 189.019 189.019 0 0 0 32.105 17.425 188.042 188.042 0 0 0 35.477 11.013ZM1861.5 2565c-52.659 0-95.5 42.841-95.5 95.5 0 52.66 42.841 95.5 95.5 95.5 52.66 0 95.5-42.84 95.5-95.5 0-52.659-42.84-95.5-95.5-95.5Z" fill="#171717" fill-rule="evenodd" data-name="Subtraction 1"/></svg>