<svg xmlns="http://www.w3.org/2000/svg" width="77.012" height="77" viewBox="741 1393.5 77.012 77"><g data-name="tag"><g data-name="Group 113"><g data-name="Group 112"><path d="M765.36 1412.386a1.515 1.515 0 0 0-1.064-.44 1.516 1.516 0 0 0-1.063.44 1.516 1.516 0 0 0-.441 1.064c0 .395.16.783.44 1.063.28.28.668.44 1.064.44a1.515 1.515 0 0 0 1.063-.44 1.516 1.516 0 0 0 .441-1.063 1.515 1.515 0 0 0-.44-1.064Z" fill="#0078d2" fill-rule="evenodd" data-name="Path 122"/></g></g><g data-name="Group 115"><g data-name="Group 114"><path d="m817.572 1399.789-1.86-1.862 1.86-1.86a1.497 1.497 0 0 0 .41-.767 1.504 1.504 0 0 0-.339-1.282 1.526 1.526 0 0 0-.072-.077 1.497 1.497 0 0 0-.767-.412 1.504 1.504 0 0 0-1.275.333 1.527 1.527 0 0 0-.085.079l-1.858 1.858-1.833-1.835a1.504 1.504 0 0 0-1.063-.441l-25.458-.014h-.004a7.477 7.477 0 0 0-5.322 2.204l-12.704 12.704a1.497 1.497 0 0 0-.411.767c-.09.444.024.92.338 1.282a1.526 1.526 0 0 0 .073.078 1.497 1.497 0 0 0 .767.411c.477.096.99-.042 1.36-.411l12.704-12.704a4.488 4.488 0 0 1 3.195-1.323h.002l24.835.014 1.394 1.395-5.581 5.581a6.173 6.173 0 0 0-7.524.928 6.122 6.122 0 0 0-1.805 4.357c0 1.646.641 3.194 1.805 4.358a6.127 6.127 0 0 0 3.251 1.702 6.21 6.21 0 0 0 1.106.1 6.145 6.145 0 0 0 4.069-1.532 6.227 6.227 0 0 0 .288-.27 6.141 6.141 0 0 0 1.801-4.358 6.165 6.165 0 0 0-.866-3.156l5.582-5.581 1.418 1.42-.014 24.8c0 1.206-.47 2.34-1.323 3.193l-36.704 36.704a4.488 4.488 0 0 1-3.195 1.323 4.488 4.488 0 0 1-3.194-1.323l-25.241-25.241a4.488 4.488 0 0 1-1.324-3.195 4.488 4.488 0 0 1 1.324-3.194l16.213-16.214a1.497 1.497 0 0 0 .411-.767 1.503 1.503 0 0 0-2.453-1.44 1.526 1.526 0 0 0-.085.08l-16.214 16.213a7.477 7.477 0 0 0-2.204 5.322 7.477 7.477 0 0 0 2.204 5.322l25.241 25.241a7.485 7.485 0 0 0 3.962 2.078 7.584 7.584 0 0 0 1.36.123 7.503 7.503 0 0 0 5.322-2.2l36.704-36.705a7.478 7.478 0 0 0 2.204-5.318l.015-25.424a1.655 1.655 0 0 0 0-.001 1.504 1.504 0 0 0-.44-1.063Zm-13.959 5.982-1.736 1.736a1.497 1.497 0 0 0-.411.768c-.095.476.042.99.411 1.36a1.497 1.497 0 0 0 .768.41 1.512 1.512 0 0 0 .296.03 1.5 1.5 0 0 0 .978-.362 1.526 1.526 0 0 0 .085-.078l1.731-1.732a3.158 3.158 0 0 1-.656 2.972 3.184 3.184 0 0 1-.138.147 3.133 3.133 0 0 1-2.23.924 3.133 3.133 0 0 1-2.23-.924 3.136 3.136 0 0 1-.87-1.66 3.154 3.154 0 0 1 .732-2.652 3.186 3.186 0 0 1 .138-.148 3.135 3.135 0 0 1 1.655-.87 3.179 3.179 0 0 1 .575-.052 3.17 3.17 0 0 1 .902.131Z" fill="#0078d2" fill-rule="evenodd" data-name="Path 123"/></g></g><g data-name="Group 117"><g data-name="Group 116"><path d="m805.25 1423.782-17.529-17.53a5.922 5.922 0 0 0-3.139-1.644 5.957 5.957 0 0 0-5.004 1.383 6.016 6.016 0 0 0-.279.262l-27.74 27.74a5.916 5.916 0 0 0-1.744 4.21c0 1.591.62 3.087 1.744 4.212l17.53 17.529a5.916 5.916 0 0 0 4.21 1.744 5.916 5.916 0 0 0 4.212-1.744l27.74-27.74a5.916 5.916 0 0 0 1.744-4.211 5.916 5.916 0 0 0-1.745-4.211Zm-2.127 6.295-27.74 27.74a2.928 2.928 0 0 1-2.083.863 2.927 2.927 0 0 1-2.084-.863l-17.53-17.53a2.928 2.928 0 0 1-.862-2.083 2.927 2.927 0 0 1 .863-2.084l27.74-27.74a2.93 2.93 0 0 1 1.55-.814 2.97 2.97 0 0 1 .533-.048c.696 0 1.392.245 1.946.733a2.977 2.977 0 0 1 .138.13l17.53 17.528c.556.557.862 1.297.862 2.084 0 .787-.306 1.527-.863 2.084Z" fill="#0078d2" fill-rule="evenodd" data-name="Path 124"/></g></g><g data-name="Group 119"><g data-name="Group 118"><path d="m787.92 1421.462-.867.866c-2.313-1.428-5.28-1.237-7.156.639a5.43 5.43 0 0 0-1.582 3.889 6.058 6.058 0 0 0 .007.293 6.326 6.326 0 0 0 1.877 4.16c1.21 1.211 1.345 3.045.3 4.089a2.466 2.466 0 0 1-1.767.703c-.583 0-1.19-.178-1.732-.528a3.57 3.57 0 0 1-.589-.476c-1.21-1.21-1.345-3.045-.301-4.089a1.497 1.497 0 0 0 .411-.767 1.504 1.504 0 0 0-.339-1.282 1.526 1.526 0 0 0-.072-.078 1.497 1.497 0 0 0-.768-.411 1.504 1.504 0 0 0-1.274.332 1.526 1.526 0 0 0-.085.079 5.457 5.457 0 0 0-1.578 3.894c0 1.078.294 2.175.877 3.16a6.428 6.428 0 0 0 .062.102l-1.028 1.027a1.504 1.504 0 0 0-.072 2.05 1.526 1.526 0 0 0 .072.077c.295.295.68.441 1.065.441a1.5 1.5 0 0 0 .985-.368 1.528 1.528 0 0 0 .078-.072l1.028-1.028a6.277 6.277 0 0 0 2.613.904c.216.024.432.036.648.036a5.46 5.46 0 0 0 3.894-1.579c1.971-1.97 2.083-5.147.41-7.502a6.57 6.57 0 0 0-.71-.84 3.41 3.41 0 0 1-.922-1.624 3.082 3.082 0 0 1-.078-.556c-.036-.745.211-1.423.698-1.909.885-.886 2.34-.923 3.5-.175a3.57 3.57 0 0 1 .588.476 3.509 3.509 0 0 1 .728 1.055c.472 1.062.344 2.263-.427 3.034a1.497 1.497 0 0 0-.411.767c-.089.444.024.92.339 1.282a1.526 1.526 0 0 0 .072.078 1.497 1.497 0 0 0 .768.411 1.512 1.512 0 0 0 .296.03 1.5 1.5 0 0 0 .978-.362 1.525 1.525 0 0 0 .085-.079 5.458 5.458 0 0 0 1.579-3.894 6.216 6.216 0 0 0-.878-3.16 6.428 6.428 0 0 0-.062-.102l.866-.866a1.497 1.497 0 0 0 .412-.767 1.504 1.504 0 0 0-.34-1.282 1.526 1.526 0 0 0-.072-.078 1.504 1.504 0 0 0-2.127 0Z" fill="#0078d2" fill-rule="evenodd" data-name="Path 125"/></g></g><g data-name="Group 121"><g data-name="Group 120"><path d="m774.823 1448.526-7.725-7.726a1.498 1.498 0 0 0-.772-.412c-.44-.086-.91.025-1.27.333a1.527 1.527 0 0 0-.086.079 1.497 1.497 0 0 0-.41.767c-.09.444.023.92.338 1.283a1.526 1.526 0 0 0 .072.077l7.726 7.726a1.5 1.5 0 0 0 1.063.44 1.5 1.5 0 0 0 .986-.368 1.528 1.528 0 0 0 .078-.072 1.504 1.504 0 0 0 0-2.127Z" fill="#0078d2" fill-rule="evenodd" data-name="Path 126"/></g></g><g data-name="Group 123"><g data-name="Group 122"><path d="M762.977 1436.68c-.28-.28-.667-.441-1.064-.441a1.518 1.518 0 0 0-1.063.44 1.516 1.516 0 0 0-.44 1.065c0 .396.16.784.44 1.064s.668.44 1.063.44c.398 0 .784-.16 1.064-.44a1.513 1.513 0 0 0 .442-1.064c0-.397-.161-.783-.442-1.065Z" fill="#0078d2" fill-rule="evenodd" data-name="Path 127"/></g></g></g></svg>